<svg id="Capa_1" enable-background="new 0 0 507.702 507.702" height="512" viewBox="0 0 507.702 507.702" width="512" xmlns="http://www.w3.org/2000/svg"><g id="XMLID_29_"><path id="XMLID_638_" d="m269.131 174.778-116.474-89.428h-152.657l56.294 84.438h67.081l39.737 30.591z" fill="#ec5569"/><path id="XMLID_99_" d="m253.825 289.665-89.397-4.012-41.016 31.261h-67.118l-56.294 84.439h152.656l117.609-90.27z" fill="#cb2e43"/><path id="XMLID_3218_" d="m51.981 227.925h65.988v30h-65.988z" fill="#ffea80"/><path id="XMLID_443_" d="m51.981 242.926h65.988v14.999h-65.988z" fill="#fc6"/><path id="XMLID_4457_" d="m392.402 181.836c-25.731-6.972-55.261-11.35-82.014-11.35h-90.188c-32.541 0-64.693 5.216-95.553 15.499-4.075 1.354-8.129 2.803-12.048 4.306l-9.631 3.692v97.906l9.66 3.68c34.479 13.134 70.671 19.793 107.571 19.793h90.188c27.273 0 55.811-4.105 82.014-11.347 5.062-1.397 5.568-120.67.001-122.179z" fill="#b3d9ff"/><path id="XMLID_8_" d="m102.97 242.926v48.963l9.66 3.68c34.479 13.134 70.671 19.793 107.571 19.793h90.188c27.273 0 55.811-4.105 82.014-11.347 2.531-.7 3.923-30.895 3.985-61.09h-293.418z" fill="#80bfff"/><path id="XMLID_4561_" d="m507.702 242.926-16 12c-26.01 19.52-54.87 34.64-85.75 44.93-4.49 1.5-9.01 2.89-13.55 4.16-6.64-19.46-10.1-40.2-10.1-61.08 0-20.89 3.46-41.63 10.1-61.1 4.54 1.27 9.06 2.66 13.55 4.16 30.87 10.29 59.72 25.4 85.75 44.93z" fill="#ec5569"/><g fill="#bdbdd2"><path id="XMLID_3216_" d="m110.652 453.547h30v27.306h-30z"/><path id="XMLID_3215_" d="m265.652 374.2h30v27.306h-30z"/><path id="XMLID_3214_" d="m396.443 439.894h30v27.306h-30z"/><path id="XMLID_3209_" d="m449.982 323.301h30v27.306h-30z"/></g><g fill="#e0e3f9"><path id="XMLID_3208_" d="m449.982 47.676h30v27.306h-30z"/><path id="XMLID_641_" d="m285.337 98.85h30v27.306h-30z"/><path id="XMLID_640_" d="m71.652 26.85h30v27.306h-30z"/></g><path id="XMLID_4454_" d="m212.652 170.586v144.68c-10.07-.24-20.07-.99-30-2.22v-140.22c9.94-1.25 19.95-2 30-2.24z" fill="#80bfff"/><path id="XMLID_9_" d="m182.652 242.926v70.12c9.93 1.23 19.93 1.98 30 2.22v-72.34z" fill="#2e8ae6"/><path id="XMLID_10_" d="m382.302 242.936c0 20.88 3.46 41.62 10.1 61.08 4.54-1.27 9.06-2.66 13.55-4.16 30.88-10.29 59.74-25.41 85.75-44.93l16-12h-125.4z" fill="#cb2e43"/></g></svg>